<svg id="Group_2052" data-name="Group 2052" xmlns="http://www.w3.org/2000/svg" xmlns:xlink="http://www.w3.org/1999/xlink" width="36.048" height="36.056" viewBox="0 0 36.048 36.056">
  <defs>
    <clipPath id="clip-path">
      <rect id="Rectangle_2190" data-name="Rectangle 2190" width="36.048" height="36.056" fill="green"/>
    </clipPath>
  </defs>
  <g id="Group_2051" data-name="Group 2051" clip-path="url(#clip-path)">
    <path id="Path_21445" data-name="Path 21445" d="M8.118,9.02H6.474V6.458H9.256c-.438-.93-.854-1.825-1.28-2.714A2.676,2.676,0,0,1,8.929.327,2.464,2.464,0,0,1,10.073.02Q15.341-.014,20.61.013a2.313,2.313,0,0,1,2.47,1.9,2.843,2.843,0,0,1-.262,2.043c-.4.8-.779,1.611-1.187,2.459h2.812V8.994h-1.7a6.755,6.755,0,0,1,.441.58c.511.862,1.032,1.719,1.509,2.6q.789,1.458,1.505,2.956a12.624,12.624,0,0,1,1.093,3.554c.1.621.193,1.241.3,1.9.068,0,.184.014.3.014,1.368,0,2.735-.021,4.1.009a4.026,4.026,0,0,1,2.306.636,3.78,3.78,0,0,1,1.7,2.865,7.1,7.1,0,0,1-.187,2.848,10.732,10.732,0,0,1-.586,1.131.562.562,0,0,0,0,.468,3.471,3.471,0,0,1,.757,2.048,21.411,21.411,0,0,1-.017,2.252,3.453,3.453,0,0,1-1.324,2.3,4.282,4.282,0,0,1-2.847.9q-14.258-.028-28.515-.014a2.888,2.888,0,0,1-1.815-.706A3.628,3.628,0,0,1,0,32.375a4.069,4.069,0,0,1,1.335-3.156,5.032,5.032,0,0,0,1.672-2.485,8.323,8.323,0,0,0,.273-1.66c.042-1.245.034-2.493.013-3.74a13.335,13.335,0,0,1,1.258-5.9C5.438,13.527,6.5,11.7,7.5,9.853a7.548,7.548,0,0,1,.614-.833M24.986,20.6c-.042-.286-.085-.528-.112-.773a11.913,11.913,0,0,0-1.261-4.156q-1.01-1.983-2.058-3.946a5.475,5.475,0,0,0-.66-.929,4.877,4.877,0,0,0-3.671-1.763,30.958,30.958,0,0,0-4.2.082,4.454,4.454,0,0,0-3.507,2.306c-.722,1.248-1.347,2.552-2.031,3.823A12.752,12.752,0,0,0,5.86,21.755c.027.924,0,1.85.005,2.775a9.272,9.272,0,0,1-.622,3.619,7.137,7.137,0,0,1-1.872,2.694,1.831,1.831,0,0,0-.79,1.567,1.036,1.036,0,0,0,1.067,1.06H18.163c-.147-1.814-.525-3.622.82-5.123l-.721-1.169c-.413.254-.828.535-1.268.768a.4.4,0,0,0-.25.43c.015.409,0,.818,0,1.2H14.174c0-.431.014-.833-.009-1.234a.424.424,0,0,0-.184-.32,3.774,3.774,0,0,1-1.575-1.2,3.343,3.343,0,0,1-.8-2.351h2.561a1.177,1.177,0,0,0,.517,1.018,1.2,1.2,0,0,0,1.525,0,1.314,1.314,0,0,0,.476-1.235c-.106-.79-.7-1.055-1.4-1.077A3.689,3.689,0,0,1,12.655,22a3.74,3.74,0,0,1-1.062-2.817,3.815,3.815,0,0,1,.886-2.321A4.349,4.349,0,0,1,14.2,15.647V14.193h2.55c0,.4.019.78-.007,1.153a.45.45,0,0,0,.313.508,3.848,3.848,0,0,1,2.269,3.458c-.816,0-1.618.007-2.419-.011a.338.338,0,0,1-.226-.237,1.213,1.213,0,0,0-1.5-.969,1.236,1.236,0,0,0-1,1.452,1.4,1.4,0,0,0,1.285,1.06,3.707,3.707,0,0,1,1.923.557c.448.339.877.7,1.276,1.024.354-.3.716-.668,1.129-.962a3.894,3.894,0,0,1,2.375-.63c.921.008,1.843,0,2.823,0m2.019,6.434v0q2.592,0,5.183,0a1.224,1.224,0,0,0,1.2-1.008,6.447,6.447,0,0,0,.072-1.582,1.228,1.228,0,0,0-1.357-1.256c-3.428-.031-6.857-.016-10.286-.009a1.254,1.254,0,0,0-1.209,1.245q0,.7,0,1.406a1.256,1.256,0,0,0,1.211,1.2q2.591,0,5.183,0m-.034,6.436v0q2.591,0,5.183,0a1.215,1.215,0,0,0,1.236-1.015,6.266,6.266,0,0,0,.072-1.581A1.23,1.23,0,0,0,32.1,29.623c-3.428-.03-6.857-.016-10.285-.008a1.243,1.243,0,0,0-1.2,1.251q0,.7,0,1.406a1.259,1.259,0,0,0,1.216,1.2q2.571,0,5.143,0M20.593,2.6H10.274l1.844,3.841c2.14,0,4.283,0,6.426-.009a.447.447,0,0,0,.312-.215c.223-.411.42-.836.621-1.258.373-.783.742-1.569,1.116-2.359" transform="translate(0 0)" fill="green"/>
  </g>
</svg>
