<svg id="Group_1912" data-name="Group 1912" xmlns="http://www.w3.org/2000/svg" xmlns:xlink="http://www.w3.org/1999/xlink" width="20" height="20.003" viewBox="0 0 20 20.003">
  <defs>
    <clipPath id="clip-path">
      <rect id="Rectangle_2038" data-name="Rectangle 2038" width="20" height="20.003" fill="#fff"/>
    </clipPath>
  </defs>
  <g id="Group_1911" data-name="Group 1911" clip-path="url(#clip-path)">
    <path id="Path_21260" data-name="Path 21260" d="M140.3,0c.182.135.436.187.512.443a1.676,1.676,0,0,1,.108.436c.009,1.081.006,2.161,0,3.242a.854.854,0,0,1-.891.882q-5.781-.006-11.561.006a.864.864,0,0,1-.889-.9c.016-.657,0-1.315,0-1.972,0-.481,0-.963.019-1.444a.719.719,0,0,1,.585-.658c.015,0,.025-.023.038-.036Z" transform="translate(-120.926 -0.001)" fill="#fff"/>
    <path id="Path_21261" data-name="Path 21261" d="M4.375,0c.181.135.436.187.511.442a1.666,1.666,0,0,1,.109.435C5,1.958,5,3.037,5,4.117A.852.852,0,0,1,4.115,5C3.022,5,1.93,5,.837,5a.816.816,0,0,1-.8-.563A.34.34,0,0,0,0,4.376V.587A1.132,1.132,0,0,1,.625,0Z" transform="translate(0 -0.001)" fill="#fff"/>
    <path id="Path_21262" data-name="Path 21262" d="M0,144.237a.985.985,0,0,1,.623-.564.83.83,0,0,1,.169-.021c1.112,0,2.224-.012,3.335,0A.8.8,0,0,1,5,144.53c.014,1.079,0,2.159,0,3.238a.852.852,0,0,1-.885.885c-1.092-.006-2.185,0-3.277,0a.816.816,0,0,1-.8-.563A.339.339,0,0,0,0,148.026Z" transform="translate(0 -136.152)" fill="#01a3e2"/>
    <path id="Path_21263" data-name="Path 21263" d="M0,287.956a.985.985,0,0,1,.623-.564.827.827,0,0,1,.169-.021c1.112,0,2.224-.012,3.335,0a.8.8,0,0,1,.868.874c.014,1.079,0,2.159,0,3.238a.852.852,0,0,1-.885.885c-1.092-.006-2.185,0-3.277,0a.816.816,0,0,1-.8-.563A.343.343,0,0,0,0,291.745v-3.789" transform="translate(0 -272.371)" fill="#fff"/>
    <path id="Path_21264" data-name="Path 21264" d="M.625,0A1.132,1.132,0,0,0,0,.587V0Z" transform="translate(0 -0.001)" fill="#fff"/>
    <path id="Path_21265" data-name="Path 21265" d="M134.311,148.68c-1.946,0-3.892-.005-5.838,0a.814.814,0,0,1-.791-.719c-.01-.625-.013-1.249-.015-1.874,0-.553,0-1.106.01-1.659a.8.8,0,0,1,.818-.754c1.282.006,2.564,0,3.847,0h7.732a.849.849,0,0,1,.929.92c0,1.041,0,2.083,0,3.124a.86.86,0,0,1-.576.909.774.774,0,0,1-.259.044q-2.929,0-5.858,0" transform="translate(-121.005 -136.18)" fill="#01a3e2"/>
    <path id="Path_21266" data-name="Path 21266" d="M134.313,292.4c-1.953,0-3.905,0-5.858,0a.81.81,0,0,1-.779-.71q-.016-.976-.015-1.952c0-.546-.007-1.094.02-1.639a.752.752,0,0,1,.76-.7c.319-.008.638,0,.957,0h10.661a.853.853,0,0,1,.938.931c0,1.035,0,2.07,0,3.1a.866.866,0,0,1-.586.922.793.793,0,0,1-.26.04q-2.919,0-5.838,0" transform="translate(-120.998 -272.4)" fill="#fff"/>
  </g>
</svg>
