<svg id="Group_2159" data-name="Group 2159" xmlns="http://www.w3.org/2000/svg" xmlns:xlink="http://www.w3.org/1999/xlink" width="22.565" height="18.053" viewBox="0 0 22.565 18.053">
  <defs>
    <clipPath id="clip-path">
      <rect id="Rectangle_2277" data-name="Rectangle 2277" width="22.565" height="18.053" fill="#01a3e2"/>
    </clipPath>
  </defs>
  <g id="Group_2158" data-name="Group 2158" clip-path="url(#clip-path)">
    <path id="Path_21597" data-name="Path 21597" d="M9.019,0A9.027,9.027,0,1,1,0,8.985,9.028,9.028,0,0,1,9.019,0m-.74,5.247c-.053.011-.075.018-.1.02a2.258,2.258,0,0,0,.186,4.512c.454,0,.909-.011,1.362.006a1.02,1.02,0,0,1,.463.131.712.712,0,0,1,.3.818.741.741,0,0,1-.734.548c-1.159,0-2.318,0-3.477,0H6.032v1.5H8.281v1.5H9.787V12.8c.149-.021.273-.036.4-.057a2.256,2.256,0,0,0,1.849-2.2,2.21,2.21,0,0,0-1.851-2.216,16.163,16.163,0,0,0-1.8-.051.771.771,0,0,1-.856-.761.762.762,0,0,1,.846-.744h3.654V5.263H9.769V3.772H8.279Z" transform="translate(0 0)" fill="#01a3e2"/>
    <path id="Path_21598" data-name="Path 21598" d="M247.9,219.76c.194-.169.346-.3.5-.433a10.389,10.389,0,0,0,2.394-3.136.3.3,0,0,1,.321-.194c.752.008,1.5,0,2.256,0a1.5,1.5,0,0,1,1.559,1.55,5.791,5.791,0,0,1-.05,1.052,1.424,1.424,0,0,1-1.367,1.151c-1.848.014-3.7,0-5.609,0" transform="translate(-232.364 -202.462)" fill="#fff"/>
    <path id="Path_21599" data-name="Path 21599" d="M296.734,75.764a10.79,10.79,0,0,0-1.026-3.745c.084-.006.142-.015.2-.015.759,0,1.518,0,2.277,0a1.5,1.5,0,0,1,1.554,1.554,5.772,5.772,0,0,1-.036.982,1.463,1.463,0,0,1-1.453,1.223c-.5.007-1,0-1.515,0" transform="translate(-277.176 -67.49)" fill="#fff"/>
    <path id="Path_21600" data-name="Path 21600" d="M300.783,147.759a10.784,10.784,0,0,0,.709-3.743,16.615,16.615,0,0,1,1.721.012,1.448,1.448,0,0,1,1.281,1.474,6.009,6.009,0,0,1-.049,1.1,1.432,1.432,0,0,1-1.364,1.154c-.751.019-1.5,0-2.3,0" transform="translate(-281.933 -134.974)" fill="#fff"/>
  </g>
</svg>
