<svg id="Group_2116" data-name="Group 2116" xmlns="http://www.w3.org/2000/svg" xmlns:xlink="http://www.w3.org/1999/xlink" width="38.489" height="38.5" viewBox="0 0 38.489 38.5">
  <defs>
    <clipPath id="clip-path">
      <rect id="Rectangle_2246" data-name="Rectangle 2246" width="38.489" height="38.5" fill="#01a3e2"/>
    </clipPath>
  </defs>
  <g id="Group_2115" data-name="Group 2115" clip-path="url(#clip-path)">
    <path id="Path_21571" data-name="Path 21571" d="M0,28.576V27.9c.02-.069.046-.137.06-.208a3.16,3.16,0,0,1,3.877-2.556.266.266,0,0,0,.352-.155c.3-.551.593-1.1.913-1.639.124-.208.091-.318-.1-.449a6.712,6.712,0,0,1-1.628-1.6,7.516,7.516,0,0,1-1.168-6.938,7.422,7.422,0,0,1,3.181-4.135c.18-.116.264-.207.148-.442C5.112,8.715,4.606,7.64,4.1,6.564c-.089-.19-.175-.234-.4-.2a3.13,3.13,0,0,1-2.952-1.1A3.922,3.922,0,0,1,0,3.612V2.86a7.606,7.606,0,0,1,.279-.928A3.219,3.219,0,0,1,3.256.007,3.245,3.245,0,0,1,6.176,2.018a3.129,3.129,0,0,1-.813,3.537.36.36,0,0,0-.09.508c.493,1.012.983,2.026,1.449,3.051.133.292.251.357.577.256a7.472,7.472,0,0,1,6.661.981,7.393,7.393,0,0,1,2.305,2.483c.091.157.16.277.4.175q3.293-1.412,6.6-2.8c.167-.07.223-.147.165-.338a7.226,7.226,0,0,1-.093-3.965c.046-.18.025-.27-.161-.336q-.814-.285-1.618-.6c-.173-.068-.259-.022-.37.118a3.168,3.168,0,0,1-5.129.041,3.193,3.193,0,1,1,5.738-1.714c-.01.214.043.313.248.38.475.157.948.323,1.408.519.278.118.408.1.565-.2a7.5,7.5,0,0,1,2.759-2.959,7.684,7.684,0,0,1,9.79,11.63A7.462,7.462,0,0,1,29.19,15.2c-.219-.044-.394-.112-.51.217q-1.429,4.051-2.909,8.084c-.09.245-.043.353.18.464a7.1,7.1,0,0,1,2.364,1.879c.158.192.267.22.483.075q1.594-1.062,3.212-2.088a.408.408,0,0,0,.209-.542,3.186,3.186,0,0,1,4.333-3.765,3.014,3.014,0,0,1,1.93,2.887,3.188,3.188,0,0,1-5.226,2.493.361.361,0,0,0-.513-.034c-1.01.674-2.033,1.328-3.052,1.99-.451.293-.451.293-.221.79A7.7,7.7,0,0,1,25.184,38c-.637.236-1.3.328-1.95.5h-1.5a.9.9,0,0,0-.172-.062,7.571,7.571,0,0,1-6.3-4.965c-.094-.233-.2-.259-.42-.2-.751.191-1.5.382-2.263.535-.3.061-.386.177-.418.482A3.037,3.037,0,0,1,10.1,37a3.006,3.006,0,0,1-3.385-.749,3.188,3.188,0,0,1,1.86-5.4,3.045,3.045,0,0,1,3.165,1.562.334.334,0,0,0,.449.178c.763-.2,1.529-.382,2.3-.543.275-.057.364-.151.334-.443A7.453,7.453,0,0,1,16.642,25.8c.162-.19.137-.3-.019-.466-.708-.762-1.41-1.528-2.1-2.307-.167-.189-.274-.216-.483-.059A6.878,6.878,0,0,1,12.011,24,7.487,7.487,0,0,1,6.8,23.824c-.265-.106-.386-.066-.514.189-.251.5-.529.994-.82,1.476-.137.227-.164.4.06.577a2.153,2.153,0,0,1,.452.6,3.172,3.172,0,0,1-.934,4.2,3.236,3.236,0,0,1-4.2-.477A3.837,3.837,0,0,1,0,28.576m24.308-5.233c.2.068.2-.117.245-.233q1.475-4.073,2.948-8.147c.075-.205.043-.3-.158-.4a7.537,7.537,0,0,1-3.2-3.023c-.105-.183-.187-.244-.4-.15q-3.275,1.4-6.561,2.783c-.2.083-.223.182-.173.368A7.51,7.51,0,0,1,15.429,21.7c-.165.2-.115.3.03.455.689.745,1.379,1.489,2.045,2.254.207.237.332.258.6.072A7.335,7.335,0,0,1,23,23.139a12.821,12.821,0,0,1,1.313.2M27.323,34.96a6.234,6.234,0,0,0,1.535-3.792,6.409,6.409,0,1,0-11.546,3.45c.275.364.272.362.47-.025a4.555,4.555,0,0,1,2.037-2.037c.1-.053.242-.061.294-.193a3.2,3.2,0,0,1,4.4-4.639c1.376,1.145,1.473,2.831.269,4.661a4.992,4.992,0,0,1,2.544,2.575m8.355-23.091a6.229,6.229,0,0,0,1.182-6.2,6.082,6.082,0,0,0-5.508-4.332,6.124,6.124,0,0,0-6.088,3.151,6.371,6.371,0,0,0,.46,7.129c.158.2.249.291.377-.03a3.835,3.835,0,0,1,.72-1.093A4.974,4.974,0,0,1,28.483,9.3,3.233,3.233,0,0,1,28.6,4.742,3.2,3.2,0,0,1,33.11,9.285c1.477.867,1.477.867,2.568,2.584M4.789,20.821a4.519,4.519,0,0,1,2.334-2.44c.266-.121.094-.221.011-.326a3.191,3.191,0,0,1,1.453-5.027,3.008,3.008,0,0,1,3.363.85,3.118,3.118,0,0,1,.151,4.153c-.155.2-.17.288.085.4a3.7,3.7,0,0,1,.677.4,4.592,4.592,0,0,1,1.581,2.016,6.332,6.332,0,0,0-.256-8.658,6.435,6.435,0,0,0-9.168.04,6.332,6.332,0,0,0-.231,8.6m4.9-1.563c-.3,0-.559-.012-.821,0a3.219,3.219,0,0,0-2.96,2.317.329.329,0,0,0,.147.433,6.387,6.387,0,0,0,7.17-.036.236.236,0,0,0,.11-.305,3.215,3.215,0,0,0-1.159-1.75,3.506,3.506,0,0,0-2.486-.661M22.448,37.221a6.476,6.476,0,0,0,3.589-1.112c.189-.127.155-.251.113-.41a3.189,3.189,0,0,0-2.841-2.307c-.574-.027-1.152-.027-1.726,0a3.2,3.2,0,0,0-2.833,2.269.373.373,0,0,0,.181.492,6.507,6.507,0,0,0,3.518,1.069m8.383-23.1a6.474,6.474,0,0,0,3.493-1.066.361.361,0,0,0,.17-.49A3.217,3.217,0,0,0,32.88,10.63,5.529,5.529,0,0,0,29.9,10.3a3.164,3.164,0,0,0-2.786,2.223.42.42,0,0,0,.224.571,6.622,6.622,0,0,0,3.494,1.023M18.6,5.127A1.92,1.92,0,1,0,16.69,3.209,1.92,1.92,0,0,0,18.6,5.127m14.117,1.92a1.919,1.919,0,1,0-1.892,1.928,1.907,1.907,0,0,0,1.892-1.928m-29.5,19.27a1.919,1.919,0,1,0,1.909,1.915,1.933,1.933,0,0,0-1.909-1.915M7.065,34a1.919,1.919,0,1,0,1.916-1.907A1.913,1.913,0,0,0,7.065,34M5.124,3.2A1.931,1.931,0,0,0,3.207,1.287,1.95,1.95,0,0,0,1.283,3.2a1.92,1.92,0,1,0,3.841,0M35.289,24.376a1.92,1.92,0,1,0-1.914-1.907,1.93,1.93,0,0,0,1.914,1.907M20.526,30.168a1.919,1.919,0,1,0,1.9-1.925,1.934,1.934,0,0,0-1.9,1.925m-9-14.113a1.91,1.91,0,0,0-1.9-1.926,1.92,1.92,0,1,0,1.9,1.926" transform="translate(0 -0.001)" fill="#01a3e2"/>
  </g>
</svg>
