<svg xmlns="http://www.w3.org/2000/svg" xmlns:xlink="http://www.w3.org/1999/xlink" width="103.282" height="103.282" viewBox="0 0 103.282 103.282">
  <defs>
    <clipPath id="clip-path">
      <rect id="Rectangle_2234" data-name="Rectangle 2234" width="103.282" height="103.282" fill="none"/>
    </clipPath>
  </defs>
  <g id="Group_2082" data-name="Group 2082" transform="translate(0)">
    <g id="Group_2069" data-name="Group 2069" transform="translate(0)" clip-path="url(#clip-path)">
      <path id="Path_21464" data-name="Path 21464" d="M51.641,0a51.641,51.641,0,1,0,51.641,51.641A51.549,51.549,0,0,0,51.641,0m0,92.684A41.042,41.042,0,1,1,92.683,51.641,41.04,41.04,0,0,1,51.641,92.684" fill="#eee9e0"/>
      <path id="Path_21465" data-name="Path 21465" d="M103.282,52.315A51.641,51.641,0,1,1,6.607,27.031a5.3,5.3,0,1,1,9.268,5.144A41.044,41.044,0,1,0,56.342,11.539,5.3,5.3,0,0,1,57.479,1a51.649,51.649,0,0,1,45.8,51.315" transform="translate(0 -0.674)" fill="#ffd600"/>
    </g>
  </g>
</svg>
