<svg xmlns="http://www.w3.org/2000/svg" xmlns:xlink="http://www.w3.org/1999/xlink" width="27.706" height="29.274" viewBox="0 0 27.706 29.274">
  <defs>
    <clipPath id="clip-path">
      <path id="Path_21461" data-name="Path 21461" d="M0,0H27.706V29.274H0Z" transform="translate(0 0)" fill="#01a3e2"/>
    </clipPath>
  </defs>
  <g id="Group_2055" data-name="Group 2055" transform="translate(0 -0.027)">
    <g id="Mask_Group_1966" data-name="Mask Group 1966" transform="translate(0 0.027)" clip-path="url(#clip-path)">
      <path id="Path_21447" data-name="Path 21447" d="M11.228,257.124c0-.517.008-1.036-.02-1.552a.477.477,0,0,0-.226-.36c-.218-.08-.373.026-.37.3.007.548,0,1.1,0,1.669H2.707c0-.515,0-1.037,0-1.56,0-.092.014-.232-.035-.266a.853.853,0,0,0-.4-.139c-.044,0-.14.162-.142.252-.013.558-.007,1.116-.007,1.734-.556-.108-1.12.17-1.646-.189a.988.988,0,0,1-.453-.777A6.225,6.225,0,0,1,.6,252.9a5.292,5.292,0,0,1,2.895-2.58.284.284,0,0,1,.387.116,3.657,3.657,0,0,0,1.991,1.524,2.473,2.473,0,0,0,2.238-.424,9.613,9.613,0,0,0,1.122-1.1.386.386,0,0,1,.494-.143A5.443,5.443,0,0,1,13,253.612a6.465,6.465,0,0,1,.254,2.722.951.951,0,0,1-.982.854c-.331,0-.663-.008-.995-.012l-.05-.052" transform="translate(0 -229.49)" fill="#01a3e2"/>
      <path id="Path_21448" data-name="Path 21448" d="M11.243,85.806c0-.538.006-1.077-.019-1.614a.48.48,0,0,0-.2-.36c-.238-.111-.389.017-.394.3-.008.455,0,.911,0,1.367,0,.1,0,.2,0,.316H2.722c0-.523,0-1.028,0-1.532a.993.993,0,0,0-.012-.247.275.275,0,0,0-.38-.207.368.368,0,0,0-.19.276c-.018.556-.009,1.113-.009,1.718-.509-.093-1,.114-1.481-.079a.958.958,0,0,1-.614-.872,6.394,6.394,0,0,1,.3-2.677,5.189,5.189,0,0,1,3.2-3.239c.17-.06.239-.042.345.092a4.174,4.174,0,0,0,1.684,1.416A2.606,2.606,0,0,0,7.926,80.3,4.009,4.009,0,0,0,9.313,79a.227.227,0,0,1,.323-.1,5.1,5.1,0,0,1,3.512,3.967,9.377,9.377,0,0,1,.125,2.046,1.07,1.07,0,0,1-1.109.952c-.288.021-.58,0-.87-.006l-.05-.052" transform="translate(-0.015 -72.34)" fill="#01a3e2"/>
      <path id="Path_21449" data-name="Path 21449" d="M45.783,3.311a5,5,0,0,1-2,4,2,2,0,0,1-2.68-.1A5.382,5.382,0,0,1,39.25,3.857,3.3,3.3,0,0,1,43.058.047a3.346,3.346,0,0,1,2.719,2.615,3.266,3.266,0,0,1,.006.649" transform="translate(-35.943 -0.016)" fill="#01a3e2"/>
      <path id="Path_21450" data-name="Path 21450" d="M45.8,174.538a5.189,5.189,0,0,1-1.771,3.847,2.37,2.37,0,0,1-1.374.623,2.043,2.043,0,0,1-1.524-.528,5.408,5.408,0,0,1-1.871-3.416,3.207,3.207,0,0,1,.735-2.649,3.066,3.066,0,0,1,2.884-1.156,3.277,3.277,0,0,1,2.915,2.66,2.921,2.921,0,0,1,.006.619" transform="translate(-35.955 -157.035)" fill="#01a3e2"/>
      <path id="Path_21451" data-name="Path 21451" d="M191.954,29.78c1.078,0,2.155,0,3.233,0a1.042,1.042,0,0,1,1.034,1.423,1.1,1.1,0,0,1-1,.668c-.331.009-.663,0-.995,0-1.8,0-3.606-.006-5.409,0a.992.992,0,0,1-.93-.59.956.956,0,0,1,.159-1.137,1.02,1.02,0,0,1,.833-.37c1.026.011,2.052,0,3.078,0" transform="translate(-172.177 -27.32)" fill="#fff"/>
      <path id="Path_21452" data-name="Path 21452" d="M191.825,224.868c-1.027,0-2.055-.015-3.082.005a1.1,1.1,0,0,1-1.2-.924c-.137-.44.358-1.075.873-1.148a2.245,2.245,0,0,1,.31-.019q3.113,0,6.226,0A1.051,1.051,0,0,1,196,224.237a1.086,1.086,0,0,1-1,.63c-1.058,0-2.117,0-3.175,0" transform="translate(-171.957 -204.302)" fill="#fff"/>
      <path id="Path_21453" data-name="Path 21453" d="M190.858,72.566q-2.955,0-5.911,0c-.189,0-.349-.011-.378-.253-.025-.2.046-.319.25-.345a1.99,1.99,0,0,1,.248-.009q5.833,0,11.666,0c.186,0,.414-.046.472.222.053.245-.059.371-.343.379-.383.01-.767,0-1.151,0h-4.853" transform="translate(-169.243 -66.002)" fill="#fff"/>
      <path id="Path_21454" data-name="Path 21454" d="M190.768,98.767h-5.723c-.093,0-.2.03-.276-.01a.6.6,0,0,1-.267-.258c-.07-.174.034-.3.217-.328a1.422,1.422,0,0,1,.248-.011q5.847,0,11.694,0c.092,0,.21-.015.269.033a.519.519,0,0,1,.187.3c.009.071-.094.186-.174.232a.631.631,0,0,1-.3.041q-2.939,0-5.878,0" transform="translate(-169.166 -90.026)" fill="#fff"/>
      <path id="Path_21455" data-name="Path 21455" d="M190.864,291.184h5.878c.2,0,.409-.017.438.26a.288.288,0,0,1-.266.342,1.263,1.263,0,0,1-.217,0H185.065a1.83,1.83,0,0,1-.279-.013c-.177-.027-.274-.114-.248-.315.024-.182.1-.281.293-.278.373,0,.746,0,1.119,0h4.914" transform="translate(-169.215 -267.028)" fill="#fff"/>
      <path id="Path_21456" data-name="Path 21456" d="M191.069,264.867h5.818a1.124,1.124,0,0,1,.248,0c.149.035.338.081.274.283a.772.772,0,0,1-.278.309c-.045.035-.141.007-.213.007H185.312a.684.684,0,0,1-.333-.036c-.09-.055-.2-.2-.183-.278a.415.415,0,0,1,.24-.274,1.723,1.723,0,0,1,.494-.015h5.538" transform="translate(-169.455 -242.886)" fill="#fff"/>
      <path id="Path_21457" data-name="Path 21457" d="M187.676,317.41c.954,0,1.908,0,2.861,0a.7.7,0,0,1,.323.06.3.3,0,0,1,.137.225.38.38,0,0,1-.139.26.529.529,0,0,1-.293.059c-1.908,0-3.815.007-5.723-.006a.54.54,0,0,1-.418-.2c-.111-.233.046-.4.328-.4.975,0,1.949,0,2.924,0" transform="translate(-169.082 -291.076)" fill="#fff"/>
      <path id="Path_21458" data-name="Path 21458" d="M187.85,125.022c-.964,0-1.929,0-2.893,0-.235,0-.372-.058-.38-.321-.009-.289.2-.284.378-.285,1.949-.006,3.9,0,5.848,0,.215,0,.36.089.375.313.018.266-.188.289-.373.29-.985.006-1.97,0-2.955,0" transform="translate(-169.254 -114.104)" fill="#fff"/>
      <path id="Path_21459" data-name="Path 21459" d="M135.26,162.41l.05.052-.05-.052" transform="translate(-124.031 -148.944)" fill="#01a3e2"/>
      <path id="Path_21460" data-name="Path 21460" d="M135.26,333.077l.05.052-.05-.052" transform="translate(-124.031 -305.443)" fill="#01a3e2"/>
    </g>
  </g>
</svg>
