<svg id="Group_2085" data-name="Group 2085" xmlns="http://www.w3.org/2000/svg" xmlns:xlink="http://www.w3.org/1999/xlink" width="103.28" height="103.28" viewBox="0 0 103.28 103.28">
  <defs>
    <clipPath id="clip-path">
      <rect id="Rectangle_2236" data-name="Rectangle 2236" width="103.28" height="103.28" fill="none"/>
    </clipPath>
  </defs>
  <g id="Mask_Group_2084" data-name="Mask Group 2084" clip-path="url(#clip-path)">
    <path id="Path_21467" data-name="Path 21467" d="M51.64,0a51.637,51.637,0,1,0,51.64,51.64A51.64,51.64,0,0,0,51.64,0m0,92.681A41.048,41.048,0,1,1,84.855,75.748,41.039,41.039,0,0,1,51.64,92.681" fill="#eee9e0"/>
    <path id="Path_21468" data-name="Path 21468" d="M220.667,52.313a51.365,51.365,0,0,1-6.636,25.337,5.3,5.3,0,1,1-9.24-5.187,41.053,41.053,0,0,0-31.065-60.926,5.3,5.3,0,0,1-4.7-5.261V6.271A5.282,5.282,0,0,1,174.861,1a51.644,51.644,0,0,1,45.806,51.314" transform="translate(-117.816 -0.673)" fill="#9dcd5a"/>
  </g>
</svg>
