<svg id="Group_2140" data-name="Group 2140" xmlns="http://www.w3.org/2000/svg" xmlns:xlink="http://www.w3.org/1999/xlink" width="17.03" height="20.016" viewBox="0 0 17.03 20.016">
  <defs>
    <clipPath id="clip-path">
      <rect id="Rectangle_2045" data-name="Rectangle 2045" width="17.03" height="20.016" fill="#ffd600"/>
    </clipPath>
  </defs>
  <g id="Group_1919" data-name="Group 1919" clip-path="url(#clip-path)">
    <path id="Path_21277" data-name="Path 21277" d="M4.028,11.006V18.02H5a.909.909,0,0,1,.894.523.992.992,0,0,1-.714,1.447,1.886,1.886,0,0,1-.35.021c-1.235,0-2.47-.011-3.705.006a1.063,1.063,0,0,1-1.112-.85,1.026,1.026,0,0,1,.773-1.141c.4-.049.8-.052,1.221-.077v-.267Q2.01,9.393,2,1.1A1.116,1.116,0,0,1,2.7.035,1,1,0,0,1,3.977.793a1.008,1.008,0,0,0,.068.2H4.3q5.839,0,11.678,0a.969.969,0,0,1,.9.491.918.918,0,0,1-.042,1.077c-.167.226-.329.456-.5.68q-.878,1.169-1.758,2.336c-.059.079-.092.188-.168.241-.187.129-.093.25-.006.365.729.967,1.464,1.928,2.19,2.9a1.457,1.457,0,0,1,.426.981,1.059,1.059,0,0,1-.824.919,3.07,3.07,0,0,1-.4.022H4.028Z" transform="translate(0 0)" fill="#ffd600"/>
  </g>
</svg>
