<svg id="Group_1920" data-name="Group 1920" xmlns="http://www.w3.org/2000/svg" xmlns:xlink="http://www.w3.org/1999/xlink" width="22.268" height="26.172" viewBox="0 0 22.268 26.172">
  <defs>
    <clipPath id="clip-path">
      <rect id="Rectangle_2045" data-name="Rectangle 2045" width="22.268" height="26.172" fill="#a5d069"/>
    </clipPath>
  </defs>
  <g id="Group_1919" data-name="Group 1919" clip-path="url(#clip-path)">
    <path id="Path_21277" data-name="Path 21277" d="M5.266,14.39v9.171H6.542a1.189,1.189,0,0,1,1.168.684,1.3,1.3,0,0,1-.933,1.892,2.466,2.466,0,0,1-.458.027c-1.615,0-3.23-.014-4.844.008A1.39,1.39,0,0,1,.02,25.061a1.341,1.341,0,0,1,1.011-1.491c.519-.065,1.046-.068,1.6-.1v-.349q0-10.837-.011-21.674a1.46,1.46,0,0,1,.914-1.4,1.3,1.3,0,0,1,1.67.991A1.317,1.317,0,0,0,5.29,1.3h.332q7.635,0,15.269,0a1.266,1.266,0,0,1,1.176.642,1.2,1.2,0,0,1-.055,1.409c-.218.3-.43.6-.651.889Q20.212,5.77,19.061,7.3c-.077.1-.121.246-.219.314-.244.169-.121.327-.008.477.953,1.264,1.914,2.522,2.863,3.788a1.905,1.905,0,0,1,.557,1.283,1.385,1.385,0,0,1-1.078,1.2,4.014,4.014,0,0,1-.519.029q-7.5,0-14.993,0Z" transform="translate(0 0)" fill="#a5d069"/>
  </g>
</svg>
