<svg xmlns="http://www.w3.org/2000/svg" xmlns:xlink="http://www.w3.org/1999/xlink" width="184.196" height="210.5" viewBox="0 0 184.196 210.5">
  <defs>
    <clipPath id="clip-path">
      <path id="Path_21474" data-name="Path 21474" d="M41.454,55.274c.218,4.98,6.131,13.349,8.631,13.589s2.1-5.675,1.889-10.656S49.554,49,47.05,48.757a4.436,4.436,0,0,0-.445-.021c-2.43,0-5.355,1.851-5.151,6.538" transform="translate(-41.443 -48.736)" fill="none"/>
    </clipPath>
    <linearGradient id="linear-gradient" x1="-4.526" y1="19.267" x2="-4.416" y2="19.267" gradientUnits="objectBoundingBox">
      <stop offset="0" stop-color="#f6dad8"/>
      <stop offset="0.87" stop-color="#d5837c"/>
      <stop offset="1" stop-color="#d1766e"/>
    </linearGradient>
    <clipPath id="clip-path-2">
      <path id="Path_21476" data-name="Path 21476" d="M91.494,49.445c-2.783.265-5.234,4.974-5.477,10.515s-.682,12.125,2.1,11.857,9.36-9.58,9.6-15.121c.229-5.217-3.028-7.276-5.732-7.276q-.251,0-.495.024" transform="translate(-85.836 -49.421)" fill="none"/>
    </clipPath>
    <linearGradient id="linear-gradient-2" x1="-8.445" y1="17.28" x2="-8.346" y2="17.28" xlink:href="#linear-gradient"/>
    <clipPath id="clip-path-3">
      <path id="Path_21542" data-name="Path 21542" d="M92.1,0C41.233,0,0,47.123,0,105.249S41.233,210.5,92.1,210.5s92.1-47.122,92.1-105.251S142.961,0,92.1,0Z" fill="none"/>
    </clipPath>
    <clipPath id="clip-path-4">
      <rect id="Rectangle_2241" data-name="Rectangle 2241" width="25.278" height="30.42" fill="none"/>
    </clipPath>
    <clipPath id="clip-path-5">
      <path id="Path_21479" data-name="Path 21479" d="M83.512,105.694l-23.3,1.476L58.657,77.686l25.277-.937Z" transform="translate(-58.657 -76.749)" fill="none"/>
    </clipPath>
    <linearGradient id="linear-gradient-3" x1="-3.11" y1="12.647" x2="-3.057" y2="12.647" gradientUnits="objectBoundingBox">
      <stop offset="0" stop-color="#fff"/>
      <stop offset="0.382" stop-color="#fff"/>
      <stop offset="0.498" stop-color="#fcf9f9"/>
      <stop offset="0.653" stop-color="#f5eae8"/>
      <stop offset="0.828" stop-color="#e8d2cc"/>
      <stop offset="1" stop-color="#dab4ab"/>
    </linearGradient>
  </defs>
  <g id="Group_2111" data-name="Group 2111" transform="translate(0 0)">
    <g id="Group_2112" data-name="Group 2112">
      <g id="Group_2098" data-name="Group 2098" transform="translate(6.954 40.455)">
        <path id="Path_21472" data-name="Path 21472" d="M5.188,115.015A84.834,84.834,0,1,0,90.022,30.181,84.834,84.834,0,0,0,5.188,115.015" transform="translate(-5.188 -30.181)" fill="#e7cc4b"/>
      </g>
      <g id="Group_2100" data-name="Group 2100" transform="translate(55.551 65.326)">
        <g id="Group_2099" data-name="Group 2099" clip-path="url(#clip-path)">
          <path id="Path_21473" data-name="Path 21473" d="M41,48.143l11.739.795.4,21.162L41.4,69.305Z" transform="translate(-41.595 -48.938)" fill="url(#linear-gradient)"/>
        </g>
      </g>
      <g id="Group_2102" data-name="Group 2102" transform="translate(115.055 66.244)">
        <g id="Group_2101" data-name="Group 2101" clip-path="url(#clip-path-2)">
          <path id="Path_21475" data-name="Path 21475" d="M98.639,48.761l-13.063.884-.448,23.549L98.19,72.31Z" transform="translate(-86.078 -49.646)" fill="url(#linear-gradient-2)"/>
        </g>
      </g>
      <g id="Group_2109" data-name="Group 2109">
        <g id="Group_2108" data-name="Group 2108" clip-path="url(#clip-path-3)">
          <path id="Path_21477" data-name="Path 21477" d="M60.07,115.808a142.588,142.588,0,0,1-.528-14.771c.324-.094-1.107-31.392-1.107-31.392L83.711,71.3l.267,28.935a97.081,97.081,0,0,1,1.186,13.929c-7.522,4.065-16.707,4.053-25.094,1.645" transform="translate(19.891 23.707)" fill="#fdb59c"/>
          <path id="Path_21478" data-name="Path 21478" d="M84.749,102.858c.228,19.39-5.8,34.563-12.639,49.048-6.171-11.3-9.919-27.2-11.388-38.579-.449-3.291-.806-6.018-1.067-8.824,8.386,2.409,17.57,2.421,25.094-1.645" transform="translate(20.306 35.013)" fill="#ffe3ed"/>
          <g id="Group_2107" data-name="Group 2107" transform="translate(78.623 102.874)" style="mix-blend-mode: multiply;isolation: isolate">
            <g id="Group_2106" data-name="Group 2106">
              <g id="Group_2105" data-name="Group 2105" clip-path="url(#clip-path-4)">
                <g id="Group_2104" data-name="Group 2104" transform="translate(0)">
                  <g id="Group_2103" data-name="Group 2103" clip-path="url(#clip-path-5)">
                    <rect id="Rectangle_2240" data-name="Rectangle 2240" width="25.277" height="30.42" fill="url(#linear-gradient-3)"/>
                  </g>
                </g>
              </g>
            </g>
          </g>
          <path id="Path_21480" data-name="Path 21480" d="M102.183,100.244l.693,1.005a3.05,3.05,0,0,0-.693-1.005" transform="translate(34.783 34.123)" fill="#59535d"/>
          <path id="Path_21481" data-name="Path 21481" d="M103.1,101.6c.074-.153.15-.306.221-.457-.389.03-.177.213-.221.457" transform="translate(35.09 34.428)" fill="#59535d"/>
          <path id="Path_21482" data-name="Path 21482" d="M102.7,100.994c.131.273.261.587.393.942.036-.071.071-.143.106-.214Z" transform="translate(34.959 34.378)" fill="#59535d"/>
          <path id="Path_21483" data-name="Path 21483" d="M113.994,167.284c-2.307-7.554-6.175-54.939-10.108-65.587q-.316.651-.642,1.306a71.484,71.484,0,0,1,.311,16.384c-.245,2.133-.981,4.266-.981,6.4-.979,14.939-3.426,29.877-1.468,44.812.489-2.134,3.918-4.744,4.162-4.031,2.2,4.266,1.96,9.485,3.674,14.226,1.222,3.322,1.957,6.878,3.182,10.2,2.2,6.386,3.431,12.943,5.064,19.413,3.454-1.155,6.364-2.115,6.9-2.449-4.862-18.365-4.784-23.288-10.1-40.67" transform="translate(34.165 34.617)" fill="#f86075"/>
          <path id="Path_21484" data-name="Path 21484" d="M103.108,101.482l-.036.074.009.012a.317.317,0,0,0,.027-.086" transform="translate(35.085 34.544)" fill="#59535d"/>
          <path id="Path_21485" data-name="Path 21485" d="M109.192,163.856c-2.284-9.959-4.273,4.277-4.762,6.411-1.958-14.935.489-29.873,1.469-44.812,0-2.133.736-4.266.98-6.4a71.562,71.562,0,0,0-.31-16.384c-5.051,10.147-11.192,20.347-15.173,31-2.118,5.667.535,12.395,1.9,18.022,1.316,5.43,1.484,16.894,2.816,22.458,3.683,15.353,7.632,25.449,11.43,40.9,1.575-1.15,7.869-3.28,12.974-4.986-1.631-6.471-2.866-13.029-5.063-19.414-1.226-3.317-5.1-19.2-6.257-26.8" transform="translate(30.842 34.949)" fill="#f14565"/>
          <path id="Path_21486" data-name="Path 21486" d="M31.029,193.194c2.448-8.534,3.917-17.071,7.835-24.659.735-1.185,1.713.949,2.938,1.662-2.449-15.65-3.915-31.3-2.938-47.185a140.02,140.02,0,0,1,2.107-19.5q-.818-1.61-1.6-3.222l-.009.013a.377.377,0,0,1-.028-.086l-.055-.115c-2.824,4.706-2.2,14.8-2.635,19.33-.533,5.549-1.54,11.018-2.086,16.577a227.025,227.025,0,0,1-4.28,27.045c-5.309,23.178-4.642,27.083-11.006,43.71a64.733,64.733,0,0,0,7.059,2.685c1.549-4.7,2.941-9.5,4.212-14.357a7.122,7.122,0,0,1,.491-1.9" transform="translate(6.559 34.073)" fill="#f86075"/>
          <path id="Path_21487" data-name="Path 21487" d="M34.263,100.271l.009-.013c-.013-.023-.023-.048-.038-.072a.581.581,0,0,0,.028.086" transform="translate(11.653 34.103)" fill="#59535d"/>
          <path id="Path_21488" data-name="Path 21488" d="M34.07,99.844c.056.113.111.228.166.34.021-.035.042-.07.064-.1.023-.129.029-.218-.231-.237" transform="translate(11.597 33.987)" fill="#59535d"/>
          <path id="Path_21489" data-name="Path 21489" d="M53.493,131.945c-3.76-10.061-9.442-19.715-14.314-29.3a140.2,140.2,0,0,0-2.108,19.5c-.977,15.886.491,31.534,2.938,47.185-1.224-.714-3.355-10.455-4.644-5.466-3.918,7.588-3.679,19.928-6.128,28.463a7.161,7.161,0,0,0-.491,1.9c-1.271,4.859-2.662,9.651-4.212,14.356,3.1,1.109,7.3,2.629,12.82,4.753,3.8-15.457,7.032-31.367,10.714-46.72C49.4,161.047,50.282,155.4,51.6,149.97c1.365-5.63,4.017-12.356,1.9-18.024" transform="translate(8.351 34.939)" fill="#f14565"/>
          <path id="Path_21490" data-name="Path 21490" d="M34.236,100.606c.013.024.023.05.038.072l1.192-1.73a5.8,5.8,0,0,0-1.22,1.438.689.689,0,0,0-.009.22" transform="translate(11.652 33.682)" fill="#59535d"/>
          <path id="Path_21491" data-name="Path 21491" d="M52.893,149.354c-7.465-13.657-14.326-27.316-18.922-41.381.922,6.52,3.33,15.669,7.445,28.613,4.082,12.837,11.417,18.756,6.92,38.841,4.821-8.926,8.554-18.331,4.557-26.073" transform="translate(11.564 36.754)" fill="#f14565"/>
          <path id="Path_21492" data-name="Path 21492" d="M95.213,171.867c-5.026-20.472.472-35.059,1.233-36.614,7.953-16.275,12.672-26.19,12.379-32.548-3.407,14.657-14.764,27.915-18.814,42.81-2.9,9.822.524,18.335,5.2,26.352" transform="translate(30.276 34.96)" fill="#f14565"/>
          <path id="Path_21493" data-name="Path 21493" d="M108.859,148.808c4.048-14.894,15.405-28.152,18.813-42.81a9.423,9.423,0,0,0-.464-2.614c-2.249-6.592-9.187-7.489-30.836-9.717-.949,11-2.264,12.358-16.551,40.322C61.923,103.284,65.1,103.86,65.166,93.031,41.912,99.76,30.948,90.7,34.107,113.059c4.6,14.065,11.458,27.723,18.922,41.381,4,7.742.264,17.146-4.557,26.072-1.5,6.721-14.546,33.968-14.831,46.821,5.088,4.8,29.006,9.1,37.886,10.944.83-8.95,4.669-19.937,9.6-30.187,4.918,13.833,7.534,18.447,10.2,30.391,0,0,12.266-.318,20.84-3.545a95.247,95.247,0,0,0,17.593-8.517c-1.134-13.365-13.511-42.354-15.7-51.259-4.677-8.017-8.1-16.53-5.2-26.352" transform="translate(11.429 31.667)" fill="#f86075"/>
          <path id="Path_21494" data-name="Path 21494" d="M68.075,135.62c4.2-10.127,8.977-22.9,9.5-28.292.326-3.336,2.015-9.127,2.252-19.085,7.176,5.029,10.341,5.04,16.62,6.987-2.842,6.244-4.643,9.966-6.64,12-3.135-.751-3.123-.94-6.607-.94a27.733,27.733,0,0,1,4.031,7.941c-3.025,3.511-5.7,6.89-8.138,9.767-4.02,4.757-5.776,6.3-11.021,11.62" transform="translate(23.173 30.038)" fill="#f14565"/>
          <path id="Path_21495" data-name="Path 21495" d="M75.127,135.62c-4.2-10.127-8.975-22.9-9.5-28.292-.326-3.336-2.013-9.127-2.251-19.085-7.178,5.029-10.343,5.04-16.621,6.987,2.842,6.244,4.644,9.966,6.64,12,3.135-.751,3.124-.94,6.607-.94a27.768,27.768,0,0,0-4.031,7.941c3.025,3.511,5.7,6.89,8.138,9.767,4.021,4.757,5.776,6.3,11.021,11.62" transform="translate(15.914 30.038)" fill="#f14565"/>
          <path id="Path_21496" data-name="Path 21496" d="M61.779,41.7c-.272-.019-.542-.052-.811-.091a3.444,3.444,0,0,0,.811.091" transform="translate(20.753 14.165)" fill="#b27358"/>
          <path id="Path_21497" data-name="Path 21497" d="M70.559,70.513c-.4.058-.795.106-1.2.145.4-.038.8-.087,1.2-.145" transform="translate(23.609 24.002)" fill="#ffc3aa"/>
          <path id="Path_21498" data-name="Path 21498" d="M68.147,70.721c-.579,0-1.15-.025-1.721-.067.571.04,1.145.068,1.721.067" transform="translate(22.611 24.05)" fill="#ffc3aa"/>
          <path id="Path_21499" data-name="Path 21499" d="M71.88,71.135c.2-.126.4-.245.6-.386-.2.142-.4.26-.6.386" transform="translate(24.468 24.083)" fill="#ffc3aa"/>
          <path id="Path_21500" data-name="Path 21500" d="M70.631,70.536c.523-.09,1.036-.19,1.529-.312l-.025.007c-.485.121-.991.217-1.5.306" transform="translate(24.043 23.904)" fill="#ffc3aa"/>
          <path id="Path_21501" data-name="Path 21501" d="M62.393,69.854c.437.157.906.288,1.382.416-.04-.012-.087-.019-.129-.031-.436-.117-.855-.244-1.253-.385" transform="translate(21.238 23.778)" fill="#ffc3aa"/>
          <path id="Path_21502" data-name="Path 21502" d="M66.218,70.64c-.347-.034-.688-.072-1.028-.122.34.048.681.088,1.028.122" transform="translate(22.19 24.004)" fill="#ffc3aa"/>
          <path id="Path_21503" data-name="Path 21503" d="M64.831,70.468c-.28-.05-.552-.107-.824-.168.272.059.544.118.824.168" transform="translate(21.788 23.93)" fill="#ffc3aa"/>
          <path id="Path_21504" data-name="Path 21504" d="M69.4,70.654c-.563.04-1.125.068-1.7.067.57,0,1.133-.027,1.7-.067" transform="translate(23.048 24.05)" fill="#ffc3aa"/>
          <path id="Path_21505" data-name="Path 21505" d="M62.862,70.788c.361.251.721.476,1.088.681-.365-.206-.728-.429-1.088-.681" transform="translate(21.398 24.096)" fill="#ffc3aa"/>
          <path id="Path_21506" data-name="Path 21506" d="M77.306,59.555l.078.005-.078-.005" transform="translate(26.315 20.272)" fill="#ffc3aa"/>
          <path id="Path_21507" data-name="Path 21507" d="M46.868,63.052a103.237,103.237,0,0,0,6.024,20.457,19.931,19.931,0,0,1,2.044,2.6c6.219,13.672,16.693,13.649,19.771,13.672,5.608.02,14.882-2.458,21.328-14.762.617-1.177,1.74-2.4,2.566-4.059-.453.255-.828.462-1.043.576,3.19-6.9,5.683-12.208,4.716-21.519-.761.328-1.5.6-2.17.869a5.715,5.715,0,0,1-4.083,1.134c.005.054.012.109.013.168a13.413,13.413,0,0,0,1.9.406,6.49,6.49,0,0,0,3.382-.65A6.118,6.118,0,0,1,96,62.62c-.371,2.462-4.027,6.774-9.678,5.022.023,0,.039,0,.062,0a18.392,18.392,0,0,1-4.49-1.1,2.3,2.3,0,0,1,.054-.82,8.571,8.571,0,0,1,1.1-3.543,7.44,7.44,0,0,1,1.532-1.867A7.7,7.7,0,0,1,86.7,58.854a8.326,8.326,0,0,1,5.036-.135,7.222,7.222,0,0,1,2.26.988c.107.076.21.161.315.243a5.683,5.683,0,0,0,1.521-.769,4.817,4.817,0,0,1-1.306.946,3.8,3.8,0,0,1,.378.371c.028.036.067.083.1.139a9.5,9.5,0,0,0,2.645-1.059,7.294,7.294,0,0,1-2.418,1.407c.02.034.042.066.063.1a.969.969,0,0,1,.295.131c.092-.011.173-.021.239-.032a12.969,12.969,0,0,0,2.986-.8,6.746,6.746,0,0,1-2.929,1.176.806.806,0,0,1,.066.15,3.525,3.525,0,0,0,.5.02,23.555,23.555,0,0,0,5.816-1.712C104.746,48.5,94.5,42.209,92.109,35.433c.11,3.533-.125,12.891-8.919,13.762.038.362-10.377-9.718-10.9-11.926.023,2.929,3.214,7.5,6.466,12.014C60.249,51.394,54.9,35.706,54.9,37.549c1.024,2.708,1.244,2.7,1.244,7.475-3.962,8.446-8.284,6.227-8.552,12.627A24.919,24.919,0,0,1,46.5,54.9c.031,2.291.111,5.1.373,8.147M68.09,57.025c-.814.893-6.193-4.45-14.5-1.142l-.214,0c1.625-1.655,5.053-2.452,7.836-2.2,1.521.138,8.611,2.059,6.876,3.348m5.3,19.842c-.338.509-.937.371-1.448.233l-.121-.115c-1.812-.749.82-1.9,1.568-.118m2.618.233-.358-.115c.512-2.674,3.957.047.358.115m5.766-19.546c-1.8-1.295,5.092-3.736,6.585-3.964,2.738-.418,6.177.256,7.888,1.952l-.208.013c-8.426-3.112-13.4,2.915-14.266,2m-18.5,21.076c.5.172.978.342,1.46.5s.952.312,1.433.452c.953.28,1.907.524,2.883.716a29.769,29.769,0,0,0,11.766-.008q1.454-.29,2.885-.713c.48-.138.953-.291,1.434-.449s.96-.331,1.457-.5A6.76,6.76,0,0,1,84.561,80.4a15.131,15.131,0,0,1-3.673,6.249,8.232,8.232,0,0,1-12.266,0,15.3,15.3,0,0,1-3.752-6.528,6.444,6.444,0,0,1-1.6-1.495M48.42,61.941a6.492,6.492,0,0,0,3.382.65,12.083,12.083,0,0,0,1.992-.441c0-.048,0-.094,0-.142a5.712,5.712,0,0,1-4.161-1.125,9,9,0,0,0,3.645.843,3.479,3.479,0,0,0,.551-.021.8.8,0,0,1,.051-.145,6.709,6.709,0,0,1-2.964-1.18,12.908,12.908,0,0,0,2.988.8c.068.011.153.021.245.032a.9.9,0,0,1,.287-.13,1.184,1.184,0,0,1,.063-.1,7.271,7.271,0,0,1-2.419-1.406,9.457,9.457,0,0,0,2.642,1.058c.04-.055.076-.1.109-.138a3.288,3.288,0,0,1,.377-.371,4.7,4.7,0,0,1-1.3-.946,5.645,5.645,0,0,0,1.519.769c.106-.082.209-.166.318-.243A7.188,7.188,0,0,1,58,58.718a8.233,8.233,0,0,1,5,.134,7.977,7.977,0,0,1,2.153,1.465,7.434,7.434,0,0,1,1.531,1.867,8.59,8.59,0,0,1,1.1,3.533,2.29,2.29,0,0,1,.051.83,17.753,17.753,0,0,1-3.685.984h.011a8.239,8.239,0,0,1-6.215-.429A7.093,7.093,0,0,1,55.3,65.091a6.122,6.122,0,0,1-1.441-2.511,6.115,6.115,0,0,1-5.442-.639" transform="translate(15.827 12.061)" fill="#ffc3aa"/>
          <path id="Path_21508" data-name="Path 21508" d="M65.668,66.818l-.121-.115c-1.811-.749.82-1.9,1.57-.118-.339.509-.937.371-1.449.233" transform="translate(22.1 22.344)" fill="#b36f65"/>
          <path id="Path_21509" data-name="Path 21509" d="M68.6,66.847l-.357-.115c.512-2.675,3.956.047.357.115" transform="translate(23.231 22.315)" fill="#b36f65"/>
          <path id="Path_21510" data-name="Path 21510" d="M64.124,70.446a14.1,14.1,0,0,0,.588,1.627c-.042-.024-.084-.054-.125-.079-.367-.206-.728-.432-1.088-.681q-.613-.428-1.221-.93c-.411-.335-.82-.7-1.232-1.086a.513.513,0,0,1-.055-.052,14.858,14.858,0,0,0,1.879.816c.4.141.818.267,1.253.385" transform="translate(20.761 23.571)" fill="#62413e"/>
          <path id="Path_21511" data-name="Path 21511" d="M71.86,70.466c.583-.145,1.147-.311,1.678-.5.394-.142.771-.292,1.134-.452-.3.268-.6.527-.89.767-.389.322-.78.614-1.173.887-.2.141-.4.26-.6.385-.166.1-.328.212-.492.308.1-.472.2-.938.322-1.39l.025-.007" transform="translate(24.343 23.663)" fill="#62413e"/>
          <path id="Path_21512" data-name="Path 21512" d="M63.457,70.172c.256.066.516.125.781.182s.544.118.824.168c.251.046.5.087.76.125.342.048.682.087,1.029.122.209.02.417.046.627.06.572.042,1.143.068,1.722.067s1.131-.027,1.694-.067c.173-.012.343-.029.516-.044.4-.038.8-.086,1.2-.143.168-.025.338-.048.505-.075.513-.088,1.019-.186,1.5-.306-.123.452-.223.918-.322,1.39-.071.04-.142.091-.213.131A10.377,10.377,0,0,1,69.023,73.2a10.256,10.256,0,0,1-5.06-1.4c-.016-.009-.031-.021-.047-.029a14.6,14.6,0,0,1-.588-1.626c.042.011.088.017.129.03" transform="translate(21.557 23.876)" fill="#fff"/>
          <path id="Path_21513" data-name="Path 21513" d="M60.471,68.165c-.483-.162-.96-.332-1.46-.5a6.444,6.444,0,0,0,1.6,1.495,15.31,15.31,0,0,0,3.752,6.529,8.231,8.231,0,0,0,12.265,0A15.111,15.111,0,0,0,80.3,69.432a6.777,6.777,0,0,0,2.028-1.771c-.5.17-.976.342-1.458.5s-.954.311-1.433.45q-1.434.42-2.886.713a30.12,30.12,0,0,1-5.884.59,29.762,29.762,0,0,1-5.882-.583c-.974-.192-1.929-.436-2.882-.716-.481-.139-.953-.292-1.433-.452m1.2,1.619a14.731,14.731,0,0,0,1.878.816c.437.157.906.288,1.382.416.257.066.517.125.781.182s.544.118.824.168c.252.046.5.087.761.125.34.048.681.088,1.028.122.21.02.417.046.629.06.571.04,1.145.068,1.721.067s1.133-.027,1.7-.067c.173-.012.342-.029.515-.044.4-.038.8-.087,1.2-.145.168-.024.338-.047.505-.075.523-.088,1.036-.189,1.529-.311.584-.145,1.147-.311,1.68-.5.394-.141.771-.291,1.133-.45-.3.267-.6.525-.889.765-.39.323-.781.615-1.174.887-.2.142-.4.26-.6.386-.165.1-.328.212-.492.308-.071.039-.141.091-.213.131a10.4,10.4,0,0,1-5.063,1.419,10.256,10.256,0,0,1-5.06-1.4c-.016-.009-.031-.021-.047-.029-.042-.023-.084-.054-.125-.079-.365-.206-.728-.429-1.088-.681q-.611-.428-1.221-.929c-.411-.336-.819-.7-1.232-1.087a.4.4,0,0,1-.054-.052" transform="translate(20.087 23.032)" fill="#ba4a5c"/>
          <path id="Path_21514" data-name="Path 21514" d="M73.763,58.265a9.439,9.439,0,0,1,1.344-1.433c.165-.141.335-.28.508-.42a4.022,4.022,0,0,0,8.028-.009,3.531,3.531,0,0,0-.48-1.749,15.055,15.055,0,0,1,3.177.674c-.027,1.82-1.717,6.028-7.458,5.9l-.078-.005a12.881,12.881,0,0,1-1.411-.119A18.392,18.392,0,0,1,72.9,60c.161-.381.287-.72.4-1.041a5.943,5.943,0,0,1,.456-.7" transform="translate(24.816 18.604)" fill="#fff"/>
          <path id="Path_21515" data-name="Path 21515" d="M78.94,60.195a3.9,3.9,0,0,1-4.013-3.756,8.22,8.22,0,0,1,2.221-1.356,2.177,2.177,0,0,0-.375.657c-.41.133,1.393,2.887,2.229,2.887a2.284,2.284,0,0,0,2.362-2.2,2.166,2.166,0,0,0-1.091-1.848,16.257,16.257,0,0,1,2.2.1,3.53,3.53,0,0,1,.479,1.749,3.9,3.9,0,0,1-4.013,3.765" transform="translate(25.505 18.578)" fill="#6e6c80"/>
          <path id="Path_21516" data-name="Path 21516" d="M80.964,56.428a2.284,2.284,0,0,1-2.362,2.2,2.4,2.4,0,0,1-1.984-1.016c.034,0,.122.05.1.019-1.32-1.832-.131-2.351.032-2.547a5.262,5.262,0,0,1,.663-.218,13.38,13.38,0,0,1,2.46-.283,2.167,2.167,0,0,1,1.091,1.848" transform="translate(25.905 18.579)" fill="#1e1613"/>
          <path id="Path_21517" data-name="Path 21517" d="M80.522,56.372a1.015,1.015,0,0,1-1.047.978.765.765,0,0,1-.1-.02,1,1,0,0,1-.95-.958.973.973,0,0,1,.705-.911,1.115,1.115,0,0,1,.344-.066,1.015,1.015,0,0,1,1.047.977" transform="translate(26.696 18.856)" fill="#fff"/>
          <path id="Path_21518" data-name="Path 21518" d="M83.1,54.747c-.214.02-.457.036-.717.047-.074-.043-.147-.082-.224-.123a2.9,2.9,0,0,0,.768-.125c.074.016.127.1.173.2" transform="translate(27.966 18.567)" fill="#b5827e"/>
          <path id="Path_21519" data-name="Path 21519" d="M83.524,54.6a9.421,9.421,0,0,0-1-.239,8.592,8.592,0,0,0-4.376.363,9.049,9.049,0,0,0-3.586,2.344,7.46,7.46,0,0,0-1.213,1.693,4.983,4.983,0,0,0-.375.956c-.016.058-.02.121-.032.18a8.571,8.571,0,0,1,1.1-3.543,7.469,7.469,0,0,1,1.532-1.867A7.719,7.719,0,0,1,77.7,53.022a8.326,8.326,0,0,1,5.036-.135,7.253,7.253,0,0,1,2.26.988c.109.076.21.161.315.243a15.108,15.108,0,0,1-1.783.481" transform="translate(24.83 17.893)" fill="#b5827e"/>
          <path id="Path_21520" data-name="Path 21520" d="M82.729,54.563c.054-.02.114-.046.172-.067.02.034.042.066.063.1a1.412,1.412,0,0,0-.235-.034" transform="translate(28.161 18.55)" fill="#b5827e"/>
          <path id="Path_21521" data-name="Path 21521" d="M72.9,58.91a3.365,3.365,0,0,1,.4-1.041c-.115.322-.241.661-.4,1.041" transform="translate(24.816 19.698)" fill="#b5827e"/>
          <path id="Path_21522" data-name="Path 21522" d="M81.891,54.626c-.182-.084-.369-.165-.562-.24a8.636,8.636,0,0,0,1.339-.531,3.946,3.946,0,0,1,.378.37c.028.038.067.084.1.141a12.409,12.409,0,0,1-1.26.26" transform="translate(27.684 18.332)" fill="#b5827e"/>
          <path id="Path_21523" data-name="Path 21523" d="M87.034,55.987c.005.054.012.109.013.168a13.268,13.268,0,0,0,1.9.406,6.488,6.488,0,0,0,3.382-.65,6.113,6.113,0,0,1-5.316.68c-.37,2.462-4.027,6.774-9.676,5.022.021,0,.038,0,.06,0a12.883,12.883,0,0,0,1.411.119l.078.005c5.74.127,7.43-4.08,7.458-5.9a15.145,15.145,0,0,0-3.177-.674,16.478,16.478,0,0,0-2.2-.1,13.353,13.353,0,0,0-2.46.283,5.211,5.211,0,0,0-.665.218,8.274,8.274,0,0,0-2.221,1.356c-.173.139-.343.279-.508.42a9.44,9.44,0,0,0-1.344,1.433,5.853,5.853,0,0,0-.456.7,3.325,3.325,0,0,0-.4,1.04,2.3,2.3,0,0,1,.052-.82c.012-.059.016-.121.032-.18a4.983,4.983,0,0,1,.375-.956,7.532,7.532,0,0,1,1.213-1.693,9.073,9.073,0,0,1,3.586-2.344,8.592,8.592,0,0,1,4.376-.363,9.422,9.422,0,0,1,1,.239,14.785,14.785,0,0,0,1.783-.481,5.643,5.643,0,0,0,1.521-.769,4.816,4.816,0,0,1-1.306.946,8.451,8.451,0,0,1-1.339.531c.193.075.379.155.562.24a12.436,12.436,0,0,0,1.261-.26,9.517,9.517,0,0,0,2.645-1.059,7.314,7.314,0,0,1-2.419,1.407c-.058.023-.117.047-.172.067a2.825,2.825,0,0,1-.767.126c.076.042.15.079.222.123.261-.011.5-.027.718-.047-.046-.106-.1-.186-.174-.2a1.41,1.41,0,0,1,.235.034.977.977,0,0,1,.3.131q.139-.016.237-.032a12.934,12.934,0,0,0,2.986-.8A6.716,6.716,0,0,1,86.9,55.526a.726.726,0,0,1,.066.15,3.355,3.355,0,0,0,.5.02,9.011,9.011,0,0,0,3.645-.843,5.709,5.709,0,0,1-4.083,1.134" transform="translate(24.812 18.092)" fill="#422c2a"/>
          <path id="Path_21524" data-name="Path 21524" d="M55.711,59.571a7.079,7.079,0,0,1-2.646-2.012,8.773,8.773,0,0,0,2.646,2.012" transform="translate(18.063 19.593)" fill="#fff"/>
          <path id="Path_21525" data-name="Path 21525" d="M52.446,55.31a13.935,13.935,0,0,1,3.116-.666,3.546,3.546,0,0,0-.488,1.763,4.024,4.024,0,0,0,8.029.025c.17.133.343.263.507.4a9.3,9.3,0,0,1,1.343,1.433,6.456,6.456,0,0,1,.454.7c.118.322.243.662.4,1.044a17.752,17.752,0,0,1-3.685.984c-7,.985-9.47-3.741-9.68-5.682" transform="translate(17.852 18.601)" fill="#fff"/>
          <path id="Path_21526" data-name="Path 21526" d="M58.422,60.2a3.9,3.9,0,0,1-4.014-3.765,3.545,3.545,0,0,1,.487-1.763,18.071,18.071,0,0,1,2.21-.092,2.207,2.207,0,0,0-1.063,1.452c-.154.172,1.419,2.6,2.319,2.6a2.284,2.284,0,0,0,2.36-2.2,2.071,2.071,0,0,0-.437-1.267,10.768,10.768,0,0,1,2.151,1.292,3.9,3.9,0,0,1-4.013,3.74" transform="translate(18.52 18.576)" fill="#6e6c80"/>
          <path id="Path_21527" data-name="Path 21527" d="M57.942,58.627a2.383,2.383,0,0,1-2.07-1.157c.161.091-1.037-2.011.814-2.9a9.561,9.561,0,0,1,2.446.29c.251.09.492.193.733.3A2.076,2.076,0,0,1,60.3,56.43a2.285,2.285,0,0,1-2.36,2.2" transform="translate(18.939 18.577)" fill="#1e1613"/>
          <path id="Path_21528" data-name="Path 21528" d="M59.131,55.4a.98.98,0,1,1,0,1.954,1.083,1.083,0,0,1-.539-.16.951.951,0,0,1-.511-.818.94.94,0,0,1,.26-.626,1.067,1.067,0,0,1,.789-.351" transform="translate(19.771 18.857)" fill="#fff"/>
          <path id="Path_21529" data-name="Path 21529" d="M65.112,58.761A7.655,7.655,0,0,0,63.9,57.068a9.078,9.078,0,0,0-3.587-2.344,8.605,8.605,0,0,0-4.376-.363,9.4,9.4,0,0,0-1,.239,14.744,14.744,0,0,1-1.784-.481c.1-.082.209-.166.318-.243a7.185,7.185,0,0,1,2.259-.987,8.208,8.208,0,0,1,5,.134,7.923,7.923,0,0,1,2.154,1.465,7.427,7.427,0,0,1,1.531,1.866,8.574,8.574,0,0,1,1.1,3.533c-.013-.055-.017-.114-.032-.17a4.979,4.979,0,0,0-.374-.956" transform="translate(18.094 17.893)" fill="#b7715d"/>
          <path id="Path_21530" data-name="Path 21530" d="M62.519,58.911c-.161-.381-.285-.722-.4-1.043a3.327,3.327,0,0,1,.4,1.043" transform="translate(21.144 19.698)" fill="#b7715d"/>
          <path id="Path_21531" data-name="Path 21531" d="M53.177,54.794c-.255-.009-.491-.025-.7-.046.035-.106.086-.186.16-.2a2.851,2.851,0,0,0,.763.125c-.075.042-.15.08-.223.123" transform="translate(17.863 18.567)" fill="#b7715d"/>
          <path id="Path_21532" data-name="Path 21532" d="M54.456,54.386c-.189.075-.377.155-.56.24a12.692,12.692,0,0,1-1.263-.26,1.721,1.721,0,0,1,.109-.139,3.29,3.29,0,0,1,.377-.371,8.536,8.536,0,0,0,1.338.531" transform="translate(17.916 18.332)" fill="#b7715d"/>
          <path id="Path_21533" data-name="Path 21533" d="M52.656,54.563a1.228,1.228,0,0,0-.237.035c.02-.036.04-.068.063-.1l.174.068" transform="translate(17.843 18.55)" fill="#b7715d"/>
          <path id="Path_21534" data-name="Path 21534" d="M51.313,56.56a12.084,12.084,0,0,0,1.992-.441c0-.05,0-.1,0-.142a5.724,5.724,0,0,1-4.161-1.125,9.022,9.022,0,0,0,3.645.843,3.507,3.507,0,0,0,.552-.023.7.7,0,0,1,.05-.143,6.709,6.709,0,0,1-2.964-1.18,12.976,12.976,0,0,0,2.988.8c.068.011.153.021.245.032a.841.841,0,0,1,.287-.13,1.05,1.05,0,0,1,.236-.035c-.074.016-.123.1-.16.2.209.02.446.036.7.046.074-.043.149-.082.224-.123a2.809,2.809,0,0,1-.764-.125c-.055-.02-.117-.046-.173-.068a7.273,7.273,0,0,1-2.419-1.407A9.455,9.455,0,0,0,54.234,54.6c.414.1.835.2,1.263.261.184-.086.371-.165.56-.241a8.589,8.589,0,0,1-1.338-.531,4.7,4.7,0,0,1-1.3-.945,5.6,5.6,0,0,0,1.519.768,14.877,14.877,0,0,0,1.784.483,9.347,9.347,0,0,1,1-.24,8.593,8.593,0,0,1,4.376.365,9.035,9.035,0,0,1,3.586,2.344,7.561,7.561,0,0,1,1.212,1.692,5.03,5.03,0,0,1,.375.957c.013.055.017.114.032.17a2.288,2.288,0,0,1,.051.83,3.334,3.334,0,0,0-.4-1.044,6.272,6.272,0,0,0-.456-.7,9.232,9.232,0,0,0-1.342-1.433c-.165-.141-.336-.271-.508-.4a10.8,10.8,0,0,0-2.15-1.292c-.243-.106-.484-.21-.735-.3a9.5,9.5,0,0,0-2.446-.29,18.04,18.04,0,0,0-2.209.092,13.92,13.92,0,0,0-3.116.666c.21,1.941,2.685,6.667,9.68,5.682h.011a8.233,8.233,0,0,1-6.215-.43,8.718,8.718,0,0,1-2.646-2.012,6.11,6.11,0,0,1-1.441-2.509,6.119,6.119,0,0,1-5.442-.639,6.506,6.506,0,0,0,3.382.65" transform="translate(16.316 18.092)" fill="#422c2a"/>
          <path id="Path_21535" data-name="Path 21535" d="M41.616,46.607a49.248,49.248,0,0,1,15.822-21.15c11.255-9.111,29.934-9.721,44.7,1.717,4.793,3.712,7.136,7.663,8.05,12.215,9.825,13.239,11.4,33.534-4.336,44.749-.442.257-1.68.965-2.893,1.65C119.212,74.536,117.4,63.022,115.883,52.72c-.834-5.635-6.415-13.211-6.422-13.226-2.3-9.277-10.787-14.386-15.443-16.512-4.39-2.007-11.761-3.214-16.546-3.261-4.836-.046-8.146.952-12.694,2.308-1.863.558-14.376,9.91-19.5,18.788C41.27,47.765,32.8,64.275,47.118,79.135c-9.351-12.66-2.423-29.387-1.839-31.836.271-1.142,1.4-2.418,2.675-3.718.029.255.067.507.1.763-1.94,3.059-.476,10.919.924,13.845a30.262,30.262,0,0,1-.209-4.474,40.218,40.218,0,0,1,.5-4.485,26.66,26.66,0,0,0,2.276,4.958,22.756,22.756,0,0,1-.2-9.395,21.85,21.85,0,0,0,.464,2.678,6.415,6.415,0,0,0,.247.957,6.415,6.415,0,0,1-.247-.957,12.353,12.353,0,0,1,.67-6.7,11.675,11.675,0,0,0,1,4.214c.217-2.832.149-5.525,1.055-8.227a11.172,11.172,0,0,1,.777-1.492,32.769,32.769,0,0,0,3.6,7.242c3,4.891,8.987,10.4,17.244,11.257-6.065-2.175-10.844-5.28-12.816-9.233-2.444-4.911-6.308-10.54-3.559-16.334-.426,3.793,2.314,7.861,4.418,10.737a15.952,15.952,0,0,1-2.063-7.374,23.616,23.616,0,0,0,3.043,5.97c-1.586-2.281-.987-5.382-1.247-8.042a25.354,25.354,0,0,0,2.927,6c.125-2.915-1.655-6.833-.635-9.738C67.318,35.352,75.5,40.1,81.184,46.481,76.468,40.294,71.732,33.785,70.636,26A39.266,39.266,0,0,1,76.3,31.666c-.425-1.8-1.7-3.671-1.737-5.4,1.178.054,1.594,1.174,2.409,1.944a5.64,5.64,0,0,0-1.359-3.521c1.15.672,1.771,1.882,2.875,2.52a10.648,10.648,0,0,0-.922-2.7c2.679,1.133,5.305,1.45,7.7,3.155,2.5,1.777,5.427,3.679,7.037,6.5a21.548,21.548,0,0,0-3.942-7.2c.881-.071,5.337.657,7.04,2.138,12.866,6.879,15.789,23.7,9.53,35.613,3.036-1.335,5.87-5.354,6.45-13.96,5.935,12.487,3.275,23.881-8.438,35.046-.558.316-1.106.626-1.575.886-.453.255-.828.462-1.044.575,3.19-6.9,5.683-12.208,4.717-21.517-.958,1.293-1.084,2.088-1.755,2.36,2.473-11.51-5.5-16.979-7.886-23.753.109,3.532-3.442,10.55-8.809,12.8C86.629,57.512,75.579,45.2,75.058,43c.023,2.927,3.216,7.5,6.466,12.014-18.51,2.111-23.858-13.577-23.858-11.734,0,0,2.126,2.523,1.724,8.924-2.764,10.855-8.69,6.9-8.957,13.3-.348-.717-.8-3.773-1.172-4.868-.126-.373.126.41,0,0a31.223,31.223,0,0,0,.371,8.148,103.291,103.291,0,0,0,6.024,20.457c.013.036.029.076.046.113-9.112-5.376-23.93-19.934-14.086-42.743" transform="translate(13.06 6.333)" fill="#51312f"/>
          <path id="Path_21536" data-name="Path 21536" d="M51.844,51.262l-.214,0c1.625-1.655,5.053-2.452,7.836-2.2,1.521.139,8.611,2.059,6.876,3.348-.814.893-6.191-4.45-14.5-1.142" transform="translate(17.575 16.683)" fill="#5d3e2e"/>
          <path id="Path_21537" data-name="Path 21537" d="M79.476,49.009c2.738-.416,6.175.259,7.887,1.953l-.208.012c-8.426-3.11-13.4,2.918-14.266,2-1.8-1.293,5.092-3.733,6.587-3.964" transform="translate(24.71 16.642)" fill="#5d3e2e"/>
          <path id="Path_21538" data-name="Path 21538" d="M111.271,50.472c-.582,8.607-3.414,12.627-6.45,13.96,6.258-11.915,3.336-28.734-9.53-35.612-1.7-1.482-6.159-2.209-7.04-2.139a21.541,21.541,0,0,1,3.942,7.206c-1.61-2.819-4.535-4.722-7.037-6.5-2.394-1.7-5.02-2.023-7.7-3.154a10.638,10.638,0,0,1,.922,2.694c-1.1-.638-1.725-1.848-2.875-2.519a5.637,5.637,0,0,1,1.359,3.521c-.815-.769-1.232-1.891-2.409-1.945.038,1.729,1.312,3.6,1.737,5.4a39.266,39.266,0,0,0-5.665-5.662c1.1,7.781,5.832,14.29,10.549,20.477-5.689-6.382-13.866-11.128-14.96-20.735-1.02,2.906.76,6.823.635,9.738a25.409,25.409,0,0,1-2.929-6c.261,2.661-.338,5.761,1.248,8.044a23.617,23.617,0,0,1-3.043-5.97,15.946,15.946,0,0,0,2.063,7.372c-2.1-2.875-4.844-6.943-4.419-10.737-2.748,5.795,1.117,11.423,3.56,16.334C65.2,48.2,69.982,51.3,76.047,53.48c-8.257-.854-14.24-6.367-17.246-11.258a32.847,32.847,0,0,1-3.6-7.241,11.181,11.181,0,0,0-.777,1.491c-.906,2.7-.838,5.4-1.055,8.229a11.661,11.661,0,0,1-1-4.216,12.354,12.354,0,0,0-.67,6.7,21.872,21.872,0,0,1-.464-2.677,22.749,22.749,0,0,0,.2,9.394,26.647,26.647,0,0,1-2.276-4.957,40.183,40.183,0,0,0-.5,4.485,30.08,30.08,0,0,0,.209,4.474c-1.4-2.926-2.863-10.788-.924-13.846-.036-.255-.074-.508-.1-.763-1.272,1.3-2.4,2.578-2.675,3.718-.584,2.45-7.512,19.177,1.839,31.837C32.695,64,40.12,48.148,45.171,40.536c2.15-3.241,7.58-13.088,19.5-18.788,4.281-2.047,9-2.358,13.833-2.312A41.746,41.746,0,0,1,93.909,22.7c4.657,2.127,13.147,7.235,15.444,16.512.005.016,5.588,7.592,6.422,13.227,1.517,10.3,3.745,21.815-12.924,33.069-.034.023-.059.056-.091.083.027-.023.05-.05.074-.074,11.712-11.164,14.373-22.559,8.438-35.046" transform="translate(13.168 6.614)" fill="#5f3932"/>
          <path id="Path_21539" data-name="Path 21539" d="M73.838,151.572a4.233,4.233,0,1,1-4.232-4.233,4.233,4.233,0,0,1,4.232,4.233" transform="translate(22.252 50.154)" fill="#f14565"/>
          <path id="Path_21540" data-name="Path 21540" d="M73.838,137.368a4.233,4.233,0,1,1-4.232-4.233,4.234,4.234,0,0,1,4.232,4.233" transform="translate(22.252 45.319)" fill="#f14565"/>
          <path id="Path_21541" data-name="Path 21541" d="M46.538,126.657,62.7,122.887l-13.2-7.53Z" transform="translate(15.841 39.267)" fill="#fff"/>
        </g>
      </g>
    </g>
  </g>
</svg>
