<svg id="Group_1923" data-name="Group 1923" xmlns="http://www.w3.org/2000/svg" xmlns:xlink="http://www.w3.org/1999/xlink" width="20.844" height="24.499" viewBox="0 0 20.844 24.499">
  <defs>
    <clipPath id="clip-path">
      <rect id="Rectangle_2045" data-name="Rectangle 2045" width="20.844" height="24.499" fill="#7c8087"/>
    </clipPath>
  </defs>
  <g id="Group_1919" data-name="Group 1919" clip-path="url(#clip-path)">
    <path id="Path_21277" data-name="Path 21277" d="M4.93,13.47v8.585H6.124a1.113,1.113,0,0,1,1.094.64,1.214,1.214,0,0,1-.874,1.771,2.308,2.308,0,0,1-.429.025c-1.512,0-3.023-.013-4.535.007a1.3,1.3,0,0,1-1.361-1.04,1.255,1.255,0,0,1,.947-1.4C1.451,22,1.944,22,2.46,21.968v-.327q0-10.144-.011-20.289A1.366,1.366,0,0,1,3.3.043,1.219,1.219,0,0,1,4.868.97a1.233,1.233,0,0,0,.084.246h.31q7.147,0,14.293,0a1.185,1.185,0,0,1,1.1.6A1.124,1.124,0,0,1,20.6,3.138c-.2.277-.4.558-.609.833Q18.921,5.4,17.843,6.83c-.072.1-.113.231-.205.294-.229.158-.113.306-.008.447.892,1.183,1.792,2.36,2.68,3.546a1.784,1.784,0,0,1,.521,1.2,1.3,1.3,0,0,1-1.009,1.124,3.757,3.757,0,0,1-.485.027H4.93Z" transform="translate(0 0)" fill="#7c8087"/>
  </g>
</svg>
